<svg width="124" height="32" viewBox="0 0 124 32" fill="none" xmlns="http://www.w3.org/2000/svg">
<path d="M17.8336 0C18.3858 0.000177514 18.8336 0.447825 18.8336 1V31C18.8336 31.5522 18.3858 31.9998 17.8336 32H11.8336C11.2814 32 10.8336 31.5523 10.8336 31V1C10.8336 0.447715 11.2814 0 11.8336 0H17.8336ZM7.16666 0C7.71894 2.57702e-07 8.16666 0.447715 8.16666 1V23C8.16666 23.5523 7.71894 24 7.16666 24H1.16666C0.614372 24 0.166656 23.5523 0.166656 23V1C0.166657 0.447716 0.614372 6.44256e-08 1.16666 0H7.16666Z" fill="white"/>
<path d="M46.2573 29.7333V20.8693H45.8093C45.5533 21.3387 45.1907 21.7973 44.7213 22.2453C44.252 22.6933 43.6333 23.056 42.8653 23.3333C42.1187 23.632 41.2013 23.7813 40.1133 23.7813C38.748 23.7813 37.5 23.4613 36.3693 22.8213C35.26 22.1813 34.3747 21.2533 33.7133 20.0373C33.052 18.8213 32.7213 17.3813 32.7213 15.7173V15.3013C32.7213 13.616 33.052 12.176 33.7133 10.9813C34.3747 9.78668 35.2707 8.86934 36.4013 8.22934C37.532 7.56801 38.7693 7.23734 40.1133 7.23734C41.7347 7.23734 42.9933 7.54668 43.8893 8.16534C44.7853 8.78401 45.4467 9.48801 45.8733 10.2773H46.3213V7.68534H48.7853V29.7333H46.2573ZM40.7853 21.5413C42.4067 21.5413 43.7187 21.0293 44.7213 20.0053C45.7453 18.96 46.2573 17.5093 46.2573 15.6533V15.3653C46.2573 13.5093 45.7453 12.0693 44.7213 11.0453C43.7187 10 42.4067 9.47734 40.7853 9.47734C39.1853 9.47734 37.8627 10 36.8173 11.0453C35.7933 12.0693 35.2813 13.5093 35.2813 15.3653V15.6533C35.2813 17.5093 35.7933 18.96 36.8173 20.0053C37.8627 21.0293 39.1853 21.5413 40.7853 21.5413ZM52.8031 23.3333V7.68534H55.2671V9.60534H55.7151C55.9924 8.92268 56.4191 8.42134 56.9951 8.10134C57.5711 7.78134 58.3284 7.62134 59.2671 7.62134H61.1231V9.92534H59.1071C57.9764 9.92534 57.0591 10.2453 56.3551 10.8853C55.6724 11.504 55.3311 12.4747 55.3311 13.7973V23.3333H52.8031ZM67.8543 23.7813C66.7663 23.7813 65.7743 23.5893 64.8783 23.2053C63.9823 22.8213 63.2783 22.2667 62.7663 21.5413C62.2543 20.816 61.9983 19.9307 61.9983 18.8853C61.9983 17.8187 62.2543 16.944 62.7663 16.2613C63.2783 15.5573 63.9823 15.0347 64.8783 14.6933C65.7743 14.3307 66.777 14.1493 67.8863 14.1493H73.1663V12.9973C73.1663 11.888 72.8357 11.0133 72.1743 10.3733C71.5343 9.73334 70.5743 9.41334 69.2943 9.41334C68.0357 9.41334 67.0543 9.72268 66.3503 10.3413C65.6463 10.9387 65.1663 11.7493 64.9103 12.7733L62.5423 12.0053C62.7983 11.1307 63.2037 10.3413 63.7583 9.63734C64.313 8.91201 65.049 8.33601 65.9663 7.90934C66.905 7.46134 68.025 7.23734 69.3263 7.23734C71.3317 7.23734 72.889 7.76001 73.9983 8.80534C75.1077 9.82934 75.6623 11.28 75.6623 13.1573V20.2293C75.6623 20.8693 75.961 21.1893 76.5583 21.1893H77.9983V23.3333H75.7903C75.0863 23.3333 74.521 23.1413 74.0943 22.7573C73.6677 22.352 73.4543 21.8187 73.4543 21.1573V20.9973H73.0703C72.8357 21.4027 72.5157 21.8293 72.1103 22.2773C71.7263 22.704 71.193 23.056 70.5103 23.3333C69.8277 23.632 68.9423 23.7813 67.8543 23.7813ZM68.1423 21.6053C69.6357 21.6053 70.841 21.168 71.7583 20.2933C72.697 19.3973 73.1663 18.1493 73.1663 16.5493V16.1973H67.9823C66.9797 16.1973 66.1477 16.4213 65.4863 16.8693C64.8463 17.296 64.5263 17.9467 64.5263 18.8213C64.5263 19.696 64.857 20.3787 65.5183 20.8693C66.201 21.36 67.0757 21.6053 68.1423 21.6053ZM82.2213 23.3333V9.89334H77.4213V7.68534H82.2213V3.68534C82.2213 2.83201 82.456 2.16001 82.9253 1.66934C83.416 1.17868 84.1093 0.933342 85.0053 0.933342H88.9413V3.10934H85.7093C85.0693 3.10934 84.7493 3.42934 84.7493 4.06934V7.68534H88.6853V9.89334H84.7493V23.3333H82.2213ZM92.5253 23.3333V9.89334H88.6853V7.68534H92.5253V3.68534C92.5253 2.83201 92.76 2.16001 93.2293 1.66934C93.72 1.17868 94.4133 0.933342 95.3093 0.933342H99.2453V3.10934H95.9813C95.3627 3.10934 95.0533 3.42934 95.0533 4.06934V7.68534H99.9813V9.89334H95.0533V23.3333H92.5253ZM102.797 23.3333V0.933342H105.357V23.3333H102.797ZM116.537 23.7813C114.959 23.7813 113.572 23.4507 112.377 22.7893C111.183 22.1067 110.255 21.1573 109.593 19.9413C108.932 18.7253 108.601 17.3173 108.601 15.7173V15.3333C108.601 13.712 108.932 12.2933 109.593 11.0773C110.255 9.86134 111.172 8.92268 112.345 8.26134C113.519 7.57868 114.863 7.23734 116.377 7.23734C117.849 7.23734 119.151 7.55734 120.281 8.19734C121.412 8.81601 122.297 9.71201 122.937 10.8853C123.577 12.0587 123.897 13.4347 123.897 15.0133V16.1653H111.129C111.193 17.8507 111.737 19.1733 112.761 20.1333C113.785 21.072 115.065 21.5413 116.601 21.5413C117.945 21.5413 118.98 21.232 119.705 20.6133C120.431 19.9947 120.985 19.2587 121.369 18.4053L123.545 19.4613C123.225 20.1227 122.777 20.784 122.201 21.4453C121.647 22.1067 120.911 22.6613 119.993 23.1093C119.097 23.5573 117.945 23.7813 116.537 23.7813ZM111.161 14.0853H121.337C121.252 12.6347 120.751 11.504 119.833 10.6933C118.937 9.88268 117.785 9.47734 116.377 9.47734C114.948 9.47734 113.775 9.88268 112.857 10.6933C111.94 11.504 111.375 12.6347 111.161 14.0853Z" fill="white"/>
<path d="M17.8336 0C18.3858 0.000177514 18.8336 0.447825 18.8336 1V31C18.8336 31.5522 18.3858 31.9998 17.8336 32H11.8336C11.2814 32 10.8336 31.5523 10.8336 31V1C10.8336 0.447715 11.2814 0 11.8336 0H17.8336ZM7.16666 0C7.71894 2.57702e-07 8.16666 0.447715 8.16666 1V23C8.16666 23.5523 7.71894 24 7.16666 24H1.16666C0.614372 24 0.166656 23.5523 0.166656 23V1C0.166657 0.447716 0.614372 6.44256e-08 1.16666 0H7.16666Z" fill="white"/>
</svg>
