<svg width="212" height="32" viewBox="0 0 212 32" fill="none" xmlns="http://www.w3.org/2000/svg">
<path fill-rule="evenodd" clip-rule="evenodd" d="M1.16667 0H7.16667C7.71895 0 8.16667 0.447715 8.16667 1V23C8.16667 23.5523 7.71895 24 7.16667 24H1.16667C0.614383 24 0.166668 23.5523 0.166668 23V1C0.166668 0.447716 0.614383 0 1.16667 0ZM11.8333 0H17.8333C18.3856 0 18.8333 0.447715 18.8333 1V31C18.8333 31.5523 18.3856 32 17.8333 32H11.8333C11.281 32 10.8333 31.5523 10.8333 31V1C10.8333 0.447715 11.281 0 11.8333 0Z" fill="white"/>
<path d="M46.2573 29.7333V20.8693H45.8093C45.5533 21.3387 45.1907 21.7973 44.7213 22.2453C44.252 22.6933 43.6333 23.056 42.8653 23.3333C42.1187 23.632 41.2013 23.7813 40.1133 23.7813C38.748 23.7813 37.5 23.4613 36.3693 22.8213C35.26 22.1813 34.3747 21.2533 33.7133 20.0373C33.052 18.8213 32.7213 17.3813 32.7213 15.7173V15.3013C32.7213 13.616 33.052 12.176 33.7133 10.9813C34.3747 9.78668 35.2707 8.86934 36.4013 8.22934C37.532 7.56801 38.7693 7.23734 40.1133 7.23734C41.7347 7.23734 42.9933 7.54668 43.8893 8.16534C44.7853 8.78401 45.4467 9.48801 45.8733 10.2773H46.3213V7.68534H48.7853V29.7333H46.2573ZM40.7853 21.5413C42.4067 21.5413 43.7187 21.0293 44.7213 20.0053C45.7453 18.96 46.2573 17.5093 46.2573 15.6533V15.3653C46.2573 13.5093 45.7453 12.0693 44.7213 11.0453C43.7187 10 42.4067 9.47734 40.7853 9.47734C39.1853 9.47734 37.8627 10 36.8173 11.0453C35.7933 12.0693 35.2813 13.5093 35.2813 15.3653V15.6533C35.2813 17.5093 35.7933 18.96 36.8173 20.0053C37.8627 21.0293 39.1853 21.5413 40.7853 21.5413ZM58.7871 23.6213C57.6564 23.6213 56.6111 23.376 55.6511 22.8853C54.7124 22.3947 53.9657 21.6693 53.4111 20.7093C52.8777 19.728 52.6111 18.544 52.6111 17.1573V7.68534H55.1391V16.9653C55.1391 18.5227 55.5231 19.6533 56.2911 20.3573C57.0804 21.0613 58.1364 21.4133 59.4591 21.4133C60.9524 21.4133 62.1791 20.9227 63.1391 19.9413C64.0991 18.96 64.5791 17.4987 64.5791 15.5573V7.68534H67.1071V23.3333H64.6431V20.6773H64.1951C63.8537 21.424 63.2671 22.1067 62.4351 22.7253C61.6031 23.3227 60.3871 23.6213 58.7871 23.6213ZM79.7888 23.7813C78.1675 23.7813 76.8982 23.472 75.9808 22.8533C75.0848 22.2347 74.4342 21.5307 74.0288 20.7413H73.5808V23.3333H71.1168V0.933342H73.6448V10.1493H74.0928C74.3488 9.65868 74.7115 9.20001 75.1808 8.77334C75.6502 8.32534 76.2582 7.96268 77.0048 7.68534C77.7728 7.38668 78.7008 7.23734 79.7888 7.23734C81.1542 7.23734 82.3915 7.56801 83.5008 8.22934C84.6315 8.86934 85.5275 9.79734 86.1888 11.0133C86.8502 12.208 87.1808 13.6373 87.1808 15.3013V15.7173C87.1808 17.3813 86.8395 18.8213 86.1568 20.0373C85.4955 21.2533 84.5995 22.1813 83.4688 22.8213C82.3595 23.4613 81.1328 23.7813 79.7888 23.7813ZM79.1168 21.5413C80.7382 21.5413 82.0502 21.0293 83.0528 20.0053C84.0768 18.96 84.5888 17.5093 84.5888 15.6533V15.3653C84.5888 13.5093 84.0768 12.0693 83.0528 11.0453C82.0502 10 80.7382 9.47734 79.1168 9.47734C77.5168 9.47734 76.1942 10 75.1488 11.0453C74.1248 12.0693 73.6128 13.5093 73.6128 15.3653V15.6533C73.6128 17.5093 74.1248 18.96 75.1488 20.0053C76.1942 21.0293 77.5168 21.5413 79.1168 21.5413ZM90.4306 23.3333V7.68534H92.9586V23.3333H90.4306ZM91.7106 5.25334C91.1559 5.25334 90.6866 5.07201 90.3026 4.70934C89.9399 4.34668 89.7586 3.88801 89.7586 3.33334C89.7586 2.75734 89.9399 2.28801 90.3026 1.92534C90.6866 1.56268 91.1559 1.38134 91.7106 1.38134C92.2652 1.38134 92.7239 1.56268 93.0866 1.92534C93.4492 2.28801 93.6306 2.75734 93.6306 3.33334C93.6306 3.88801 93.4492 4.34668 93.0866 4.70934C92.7239 5.07201 92.2652 5.25334 91.7106 5.25334ZM104.194 23.7813C102.68 23.7813 101.314 23.4613 100.098 22.8213C98.9037 22.16 97.9543 21.2213 97.2503 20.0053C96.5677 18.7893 96.2263 17.3493 96.2263 15.6853V15.3333C96.2263 13.648 96.5677 12.208 97.2503 11.0133C97.9543 9.79734 98.9037 8.86934 100.098 8.22934C101.314 7.56801 102.68 7.23734 104.194 7.23734C105.688 7.23734 106.957 7.51468 108.002 8.06934C109.069 8.62401 109.901 9.36001 110.498 10.2773C111.117 11.1947 111.512 12.176 111.682 13.2213L109.218 13.7333C109.112 12.9653 108.856 12.2613 108.45 11.6213C108.066 10.9813 107.522 10.4693 106.818 10.0853C106.114 9.70134 105.25 9.50934 104.226 9.50934C103.181 9.50934 102.242 9.74401 101.41 10.2133C100.6 10.6827 99.949 11.3547 99.4583 12.2293C98.989 13.104 98.7543 14.1493 98.7543 15.3653V15.6533C98.7543 16.8693 98.989 17.9147 99.4583 18.7893C99.949 19.664 100.6 20.336 101.41 20.8053C102.242 21.2747 103.181 21.5093 104.226 21.5093C105.784 21.5093 106.968 21.104 107.778 20.2933C108.61 19.4827 109.122 18.48 109.314 17.2853L111.81 17.8293C111.576 18.8533 111.149 19.824 110.53 20.7413C109.912 21.6587 109.069 22.3947 108.002 22.9493C106.957 23.504 105.688 23.7813 104.194 23.7813Z" fill="white"/>
<path d="M134.257 29.7333V20.8693H133.809C133.553 21.3387 133.191 21.7973 132.721 22.2453C132.252 22.6933 131.633 23.056 130.865 23.3333C130.119 23.632 129.201 23.7813 128.113 23.7813C126.748 23.7813 125.5 23.4613 124.369 22.8213C123.26 22.1813 122.375 21.2533 121.713 20.0373C121.052 18.8213 120.721 17.3813 120.721 15.7173V15.3013C120.721 13.616 121.052 12.176 121.713 10.9813C122.375 9.78668 123.271 8.86934 124.401 8.22934C125.532 7.56801 126.769 7.23734 128.113 7.23734C129.735 7.23734 130.993 7.54668 131.889 8.16534C132.785 8.78401 133.447 9.48801 133.873 10.2773H134.321V7.68534H136.785V29.7333H134.257ZM128.785 21.5413C130.407 21.5413 131.719 21.0293 132.721 20.0053C133.745 18.96 134.257 17.5093 134.257 15.6533V15.3653C134.257 13.5093 133.745 12.0693 132.721 11.0453C131.719 10 130.407 9.47734 128.785 9.47734C127.185 9.47734 125.863 10 124.817 11.0453C123.793 12.0693 123.281 13.5093 123.281 15.3653V15.6533C123.281 17.5093 123.793 18.96 124.817 20.0053C125.863 21.0293 127.185 21.5413 128.785 21.5413ZM140.803 23.3333V7.68534H143.267V9.60534H143.715C143.992 8.92268 144.419 8.42134 144.995 8.10134C145.571 7.78134 146.328 7.62134 147.267 7.62134H149.123V9.92534H147.107C145.976 9.92534 145.059 10.2453 144.355 10.8853C143.672 11.504 143.331 12.4747 143.331 13.7973V23.3333H140.803ZM155.854 23.7813C154.766 23.7813 153.774 23.5893 152.878 23.2053C151.982 22.8213 151.278 22.2667 150.766 21.5413C150.254 20.816 149.998 19.9307 149.998 18.8853C149.998 17.8187 150.254 16.944 150.766 16.2613C151.278 15.5573 151.982 15.0347 152.878 14.6933C153.774 14.3307 154.777 14.1493 155.886 14.1493H161.166V12.9973C161.166 11.888 160.836 11.0133 160.174 10.3733C159.534 9.73334 158.574 9.41334 157.294 9.41334C156.036 9.41334 155.054 9.72268 154.35 10.3413C153.646 10.9387 153.166 11.7493 152.91 12.7733L150.542 12.0053C150.798 11.1307 151.204 10.3413 151.758 9.63734C152.313 8.91201 153.049 8.33601 153.966 7.90934C154.905 7.46134 156.025 7.23734 157.326 7.23734C159.332 7.23734 160.889 7.76001 161.998 8.80534C163.108 9.82934 163.662 11.28 163.662 13.1573V20.2293C163.662 20.8693 163.961 21.1893 164.558 21.1893H165.998V23.3333H163.79C163.086 23.3333 162.521 23.1413 162.094 22.7573C161.668 22.352 161.454 21.8187 161.454 21.1573V20.9973H161.07C160.836 21.4027 160.516 21.8293 160.11 22.2773C159.726 22.704 159.193 23.056 158.51 23.3333C157.828 23.632 156.942 23.7813 155.854 23.7813ZM156.142 21.6053C157.636 21.6053 158.841 21.168 159.758 20.2933C160.697 19.3973 161.166 18.1493 161.166 16.5493V16.1973H155.982C154.98 16.1973 154.148 16.4213 153.486 16.8693C152.846 17.296 152.526 17.9467 152.526 18.8213C152.526 19.696 152.857 20.3787 153.518 20.8693C154.201 21.36 155.076 21.6053 156.142 21.6053ZM170.221 23.3333V9.89334H165.421V7.68534H170.221V3.68534C170.221 2.83201 170.456 2.16001 170.925 1.66934C171.416 1.17868 172.109 0.933342 173.005 0.933342H176.941V3.10934H173.709C173.069 3.10934 172.749 3.42934 172.749 4.06934V7.68534H176.685V9.89334H172.749V23.3333H170.221ZM180.525 23.3333V9.89334H176.685V7.68534H180.525V3.68534C180.525 2.83201 180.76 2.16001 181.229 1.66934C181.72 1.17868 182.413 0.933342 183.309 0.933342H187.245V3.10934H183.981C183.363 3.10934 183.053 3.42934 183.053 4.06934V7.68534H187.981V9.89334H183.053V23.3333H180.525ZM190.797 23.3333V0.933342H193.357V23.3333H190.797ZM204.537 23.7813C202.959 23.7813 201.572 23.4507 200.377 22.7893C199.183 22.1067 198.255 21.1573 197.593 19.9413C196.932 18.7253 196.601 17.3173 196.601 15.7173V15.3333C196.601 13.712 196.932 12.2933 197.593 11.0773C198.255 9.86134 199.172 8.92268 200.345 8.26134C201.519 7.57868 202.863 7.23734 204.377 7.23734C205.849 7.23734 207.151 7.55734 208.281 8.19734C209.412 8.81601 210.297 9.71201 210.937 10.8853C211.577 12.0587 211.897 13.4347 211.897 15.0133V16.1653H199.129C199.193 17.8507 199.737 19.1733 200.761 20.1333C201.785 21.072 203.065 21.5413 204.601 21.5413C205.945 21.5413 206.98 21.232 207.705 20.6133C208.431 19.9947 208.985 19.2587 209.369 18.4053L211.545 19.4613C211.225 20.1227 210.777 20.784 210.201 21.4453C209.647 22.1067 208.911 22.6613 207.993 23.1093C207.097 23.5573 205.945 23.7813 204.537 23.7813ZM199.161 14.0853H209.337C209.252 12.6347 208.751 11.504 207.833 10.6933C206.937 9.88268 205.785 9.47734 204.377 9.47734C202.948 9.47734 201.775 9.88268 200.857 10.6933C199.94 11.504 199.375 12.6347 199.161 14.0853Z" fill="#61F0FE"/>
</svg>
